<?xml version="1.0" encoding="iso-8859-1"?>
<!-- Generator: Adobe Illustrator 18.1.1, SVG Export Plug-In . SVG Version: 6.00 Build 0)  -->
<svg version="1.1" id="Capa_1" xmlns="http://www.w3.org/2000/svg" xmlns:xlink="http://www.w3.org/1999/xlink" x="0px" y="0px"
	 viewBox="0 0 253.455 253.455" style="enable-background:new 0 0 253.455 253.455;" xml:space="preserve">
<g>
	<path style="fill:#010002;" d="M253.434,112.604V90.582c0-39.069-27.761-50.36-46.292-53.548
		c-8.882-1.523-23.551-1.164-32.558-1.164H71.035c-35.93,0-49.68,25.281-54.88,42.648c-2.589,8.632-3.106,23.296-3.106,32.308
		v33.053c0,30.355-1.159,48.206-10.345,61.554c-5.107,7.424-2.921,12.76,6.065,12.14c40.646-2.779,48.152-10.454,56.441-21.163
		c5.521-7.131,14.065-14.664,23.078-14.664c20.326,0,57.796,0,101.738,0C256.458,181.757,253.434,112.604,253.434,112.604z
		 M199.805,146.522H72.525c-6.135,0-11.123-4.998-11.123-11.128c0-6.157,4.988-11.531,11.123-11.531h127.28
		c6.157,0,11.161,5.374,11.161,11.531C210.966,141.524,205.962,146.522,199.805,146.522z M199.805,100.491H72.525
		c-6.135,0-11.123-5.336-11.123-11.498c0-6.141,4.988-11.123,11.123-11.123h127.28c6.157,0,11.161,4.982,11.161,11.123
		C210.966,95.156,205.962,100.491,199.805,100.491z"/>
</g>
<g>
</g>
<g>
</g>
<g>
</g>
<g>
</g>
<g>
</g>
<g>
</g>
<g>
</g>
<g>
</g>
<g>
</g>
<g>
</g>
<g>
</g>
<g>
</g>
<g>
</g>
<g>
</g>
<g>
</g>
</svg>
